<svg width="436" height="119" viewBox="0 0 436 119" fill="none" xmlns="http://www.w3.org/2000/svg">
<path d="M24.6502 53.6347C30.6008 53.6347 36.554 53.6603 42.5046 53.6194C44.8 53.604 46.5893 54.402 47.627 56.4889C48.7287 58.7038 48.6802 60.934 47.2922 63.0235C46.2876 64.5376 44.8025 65.3585 42.9877 65.3611C30.6187 65.3816 18.2472 65.3969 5.87818 65.3509C2.72651 65.3406 0.47969 62.7524 0.500138 59.425C0.520587 56.1974 2.79552 53.76 5.90374 53.6398C5.9881 53.6373 6.075 53.6347 6.15935 53.6347C12.3221 53.6347 18.4874 53.6347 24.6502 53.6347Z" fill="#CE2B2B"/>
<path d="M82.1411 65.4578C91.4172 65.4578 100.691 65.4757 109.967 65.4502C114.422 65.4374 117.18 61.6343 115.846 57.4322C115.025 54.8465 112.896 53.4373 109.706 53.4322C101.028 53.4169 92.3476 53.4245 83.6696 53.422C82.1385 53.422 80.6049 53.4527 79.0738 53.4143C75.8633 53.335 73.5628 51.0102 73.481 47.8107C73.3941 44.3196 75.4364 41.9258 78.7415 41.67C79.4188 41.6163 80.1013 41.6138 80.7812 41.6138C96.8643 41.6112 112.947 41.6138 129.03 41.601C130.132 41.601 131.264 41.5907 132.328 41.3503C135.239 40.6956 137.018 38.0434 136.691 35.0383C136.346 31.8464 134.191 29.693 131.108 29.6674C124.386 29.6111 117.663 29.6418 110.941 29.6214C110.179 29.6214 109.407 29.5753 108.658 29.4475C105.491 28.9053 103.403 26.3554 103.648 23.3835C103.929 19.9692 106.171 17.7722 109.553 17.7466C115.212 17.7032 120.871 17.7032 126.528 17.7594C127.952 17.7748 129.023 17.3246 130.06 16.3656C139.789 7.38087 151.268 1.94863 164.445 1.01C189.219 -0.75471 208.42 9.02794 221.007 30.5037C241.141 64.8645 221.106 108.11 183.043 116.709C172.366 119.12 161.856 118.576 151.483 115.192C143.362 112.542 136.169 108.282 129.956 102.412C128.989 101.499 127.982 101.095 126.656 101.1C114.489 101.133 102.319 101.128 90.1519 101.118C87.082 101.115 84.8327 99.5731 84.1221 96.9746C83.2862 93.9234 84.802 89.5321 89.2343 89.3608C89.8708 89.3352 90.5098 89.2917 91.1463 89.2917C101.698 89.2815 112.249 89.2789 122.801 89.2661C126.075 89.261 128.069 88.0129 128.925 85.4861C130.375 81.2098 127.808 77.417 123.315 77.3479C118.295 77.2712 113.274 77.3249 108.254 77.3223C90.7245 77.3147 73.1947 77.3147 55.6675 77.2891C54.6119 77.2891 53.5204 77.2456 52.5107 76.9745C49.5354 76.1817 48.0401 73.6523 48.4721 70.376C48.8632 67.4118 51.0538 65.486 54.1927 65.4757C62.4029 65.4502 70.6156 65.4655 78.8284 65.4655C79.9352 65.4655 81.042 65.4655 82.1462 65.4655V65.4578H82.1411Z" fill="#CE2B2B"/>
<path d="M72.4024 30.3515C69.1982 30.3515 65.983 30.4859 62.787 30.3192C58.2917 30.0852 55.85 26.9144 56.9098 22.972C57.5429 20.615 59.6598 18.9698 62.6301 18.9225C68.766 18.823 74.9075 18.8006 81.0434 18.9126C83.6613 18.9599 85.7039 20.1894 86.593 22.5215C87.4987 24.9009 87.0803 27.1906 85.0074 28.9055C84.11 29.6472 82.6896 30.1599 81.4646 30.2371C78.4558 30.4237 75.425 30.2993 72.4024 30.2993C72.4024 30.3167 72.4024 30.3366 72.4024 30.354V30.3515Z" fill="#CE2B2B"/>
<path d="M145.61 49.5409L201.5 25.3834L172.939 54.0955L191.579 65.8027L136.5 90.3834L164.672 61.2211L145.61 49.5409Z" fill="#1B2D51"/>
<path d="M424.956 62.789C424.956 61.9136 424.723 61.1284 424.258 60.4333C423.792 59.7382 422.913 59.1074 421.619 58.541C420.352 57.9489 418.49 57.3954 416.032 56.8804C413.86 56.417 411.855 55.8378 410.018 55.1426C408.182 54.4475 406.604 53.6108 405.285 52.6325C403.966 51.6284 402.931 50.457 402.181 49.1182C401.457 47.7538 401.095 46.1833 401.095 44.4069C401.095 42.6819 401.47 41.06 402.22 39.541C402.97 37.9963 404.056 36.6447 405.479 35.4861C406.902 34.3019 408.635 33.375 410.678 32.7056C412.721 32.0105 415.023 31.663 417.584 31.663C421.154 31.663 424.219 32.2422 426.78 33.4008C429.366 34.5593 431.345 36.1555 432.716 38.1894C434.087 40.1975 434.772 42.4631 434.772 44.9861H424.529C424.529 43.8791 424.271 42.875 423.753 41.9739C423.262 41.0729 422.499 40.352 421.464 39.8113C420.43 39.2449 419.123 38.9617 417.545 38.9617C416.123 38.9617 414.92 39.1935 413.937 39.6569C412.98 40.1203 412.256 40.7253 411.764 41.4719C411.273 42.2185 411.027 43.0424 411.027 43.9435C411.027 44.6128 411.156 45.2178 411.415 45.7585C411.7 46.2734 412.152 46.7497 412.773 47.1874C413.394 47.625 414.235 48.0241 415.295 48.3845C416.381 48.7449 417.714 49.0925 419.291 49.4272C422.421 50.0451 425.15 50.8689 427.478 51.8987C429.832 52.9028 431.668 54.2416 432.988 55.915C434.307 57.5884 434.966 59.7253 434.966 62.3256C434.966 64.1792 434.565 65.8784 433.764 67.4231C432.962 68.9421 431.798 70.268 430.272 71.4008C428.745 72.5336 426.922 73.4218 424.801 74.0654C422.68 74.6833 420.287 74.9922 417.623 74.9922C413.769 74.9922 410.51 74.31 407.846 72.9455C405.181 71.5552 403.164 69.8046 401.793 67.6935C400.422 65.5566 399.737 63.3425 399.737 61.0512H409.553C409.63 62.6731 410.07 63.9733 410.872 64.9516C411.674 65.9299 412.683 66.6379 413.898 67.0756C415.14 67.4875 416.446 67.6935 417.817 67.6935C419.369 67.6935 420.675 67.4875 421.736 67.0756C422.796 66.6379 423.598 66.0586 424.141 65.3378C424.685 64.5911 424.956 63.7416 424.956 62.789Z" fill="white"/>
<path d="M354.885 64.1793L364.08 32.4354H370.598L368.658 43.4028L359.385 74.2199H353.759L354.885 64.1793ZM349.802 32.4354L356.708 64.2565L357.329 74.2199H350.849L339.831 32.4354H349.802ZM379.134 63.7931L385.885 32.4354H395.818L384.876 74.2199H378.397L379.134 63.7931ZM371.607 32.4354L380.725 63.8703L381.928 74.2199H376.302L366.951 43.4028L365.05 32.4354H371.607Z" fill="white"/>
<path d="M319.306 74.9922C316.124 74.9922 313.266 74.4773 310.731 73.4475C308.196 72.4177 306.036 70.9888 304.252 69.1609C302.493 67.3073 301.135 65.1575 300.178 62.7117C299.247 60.2402 298.781 57.5884 298.781 54.7565V53.2117C298.781 49.9936 299.247 47.0715 300.178 44.4455C301.109 41.7937 302.428 39.5153 304.135 37.6101C305.842 35.705 307.886 34.2375 310.266 33.2077C312.645 32.1779 315.271 31.663 318.142 31.663C321.116 31.663 323.742 32.165 326.018 33.1691C328.294 34.1474 330.195 35.5376 331.722 37.3398C333.248 39.142 334.399 41.3046 335.175 43.8276C335.951 46.3249 336.339 49.0925 336.339 52.1304V56.417H303.437V49.3886H326.251V48.6162C326.199 46.9943 325.889 45.5139 325.32 44.1752C324.751 42.8107 323.871 41.7294 322.681 40.9313C321.491 40.1074 319.952 39.6955 318.064 39.6955C316.538 39.6955 315.206 40.0302 314.068 40.6995C312.956 41.3432 312.024 42.27 311.274 43.48C310.55 44.6643 310.007 46.0803 309.645 47.728C309.283 49.3757 309.102 51.2036 309.102 53.2117V54.7565C309.102 56.5071 309.334 58.1291 309.8 59.6223C310.291 61.1155 311.003 62.4157 311.934 63.5227C312.891 64.604 314.029 65.4536 315.348 66.0715C316.693 66.6636 318.219 66.9597 319.927 66.9597C322.073 66.9597 324.013 66.5478 325.746 65.7239C327.505 64.8743 329.031 63.6257 330.325 61.978L335.485 67.3073C334.606 68.5945 333.416 69.8303 331.916 71.0146C330.441 72.1989 328.656 73.1643 326.561 73.9109C324.466 74.6318 322.048 74.9922 319.306 74.9922Z" fill="white"/>
<path d="M290.362 17.9922V74.2199H279.653L255.636 35.2158V74.2199H244.966V17.9922H255.636L279.731 57.0349V17.9922H290.362Z" fill="white"/>
<g opacity="0.76">
<path d="M432.609 94.3489C432.609 94.1399 432.554 93.9523 432.445 93.7863C432.335 93.6203 432.128 93.4697 431.823 93.3344C431.525 93.193 431.086 93.0608 430.508 92.9378C429.996 92.8271 429.524 92.6888 429.091 92.5228C428.659 92.3568 428.287 92.1569 427.977 91.9233C427.666 91.6835 427.422 91.4037 427.246 91.084C427.075 90.7581 426.99 90.3831 426.99 89.9588C426.99 89.5469 427.078 89.1595 427.255 88.7967C427.431 88.4278 427.687 88.105 428.022 87.8283C428.357 87.5455 428.765 87.3242 429.247 87.1643C429.728 86.9983 430.27 86.9153 430.873 86.9153C431.714 86.9153 432.435 87.0536 433.038 87.3303C433.648 87.607 434.113 87.9882 434.436 88.4739C434.759 88.9535 434.921 89.4946 434.921 90.0972H432.508C432.508 89.8328 432.448 89.593 432.326 89.3778C432.21 89.1626 432.03 88.9904 431.787 88.8613C431.543 88.726 431.235 88.6584 430.864 88.6584C430.529 88.6584 430.246 88.7137 430.014 88.8244C429.789 88.9351 429.618 89.0796 429.502 89.2579C429.387 89.4362 429.329 89.633 429.329 89.8482C429.329 90.008 429.359 90.1525 429.42 90.2816C429.487 90.4046 429.594 90.5183 429.74 90.6229C429.886 90.7274 430.084 90.8227 430.334 90.9088C430.59 90.9949 430.903 91.0779 431.275 91.1578C432.012 91.3054 432.655 91.5021 433.203 91.7481C433.757 91.9879 434.19 92.3076 434.5 92.7072C434.811 93.1069 434.966 93.6172 434.966 94.2382C434.966 94.6809 434.872 95.0867 434.683 95.4556C434.494 95.8184 434.22 96.1351 433.861 96.4056C433.501 96.6761 433.072 96.8883 432.572 97.042C432.073 97.1895 431.51 97.2633 430.882 97.2633C429.975 97.2633 429.207 97.1004 428.58 96.7745C427.952 96.4425 427.477 96.0244 427.154 95.5202C426.831 95.0099 426.67 94.4811 426.67 93.9339H428.982C429 94.3212 429.103 94.6317 429.292 94.8654C429.481 95.099 429.719 95.2681 430.005 95.3726C430.297 95.471 430.605 95.5202 430.928 95.5202C431.293 95.5202 431.601 95.471 431.851 95.3726C432.1 95.2681 432.289 95.1298 432.417 94.9576C432.545 94.7793 432.609 94.5764 432.609 94.3489Z" fill="white"/>
<path d="M416.108 94.6809L418.273 87.0997H419.808L419.351 89.719L417.168 97.0789H415.843L416.108 94.6809ZM414.911 87.0997L416.537 94.6994L416.684 97.0789H415.158L412.563 87.0997H414.911ZM421.818 94.5887L423.408 87.0997H425.747L423.171 97.0789H421.645L421.818 94.5887ZM420.046 87.0997L422.193 94.6071L422.476 97.0789H421.151L418.949 89.719L418.502 87.0997H420.046Z" fill="white"/>
<path d="M407.729 97.2633C406.98 97.2633 406.307 97.1404 405.71 96.8944C405.113 96.6485 404.605 96.3072 404.184 95.8707C403.77 95.428 403.45 94.9146 403.225 94.3305C403.006 93.7402 402.896 93.1069 402.896 92.4305V92.0616C402.896 91.2931 403.006 90.5952 403.225 89.968C403.444 89.3347 403.755 88.7906 404.157 88.3356C404.559 87.8806 405.04 87.5301 405.601 87.2842C406.161 87.0383 406.779 86.9153 407.455 86.9153C408.156 86.9153 408.774 87.0352 409.31 87.275C409.846 87.5086 410.294 87.8406 410.653 88.271C411.013 88.7014 411.284 89.2179 411.466 89.8205C411.649 90.4169 411.74 91.0779 411.74 91.8034V92.8271H403.992V91.1486H409.365V90.9641C409.353 90.5768 409.28 90.2232 409.146 89.9035C409.012 89.5776 408.805 89.3194 408.524 89.1288C408.244 88.932 407.882 88.8336 407.437 88.8336C407.078 88.8336 406.764 88.9136 406.496 89.0734C406.234 89.2271 406.015 89.4485 405.838 89.7375C405.668 90.0203 405.54 90.3585 405.454 90.752C405.369 91.1455 405.326 91.582 405.326 92.0616V92.4305C405.326 92.8487 405.381 93.236 405.491 93.5926C405.607 93.9492 405.774 94.2597 405.993 94.5241C406.219 94.7824 406.487 94.9853 406.797 95.1328C407.114 95.2743 407.474 95.345 407.876 95.345C408.381 95.345 408.838 95.2466 409.246 95.0498C409.66 94.8469 410.02 94.5487 410.324 94.1552L411.539 95.428C411.332 95.7354 411.052 96.0305 410.699 96.3134C410.352 96.5962 409.931 96.8268 409.438 97.0051C408.945 97.1772 408.375 97.2633 407.729 97.2633Z" fill="white"/>
<path d="M400.913 83.6504V97.0789H398.392L392.736 87.7638V97.0789H390.223V83.6504H392.736L398.41 92.9747V83.6504H400.913Z" fill="white"/>
<path d="M381.013 87.0997H383.206V96.7745C383.206 97.6784 383.011 98.4439 382.622 99.071C382.238 99.7043 381.699 100.184 381.004 100.51C380.31 100.842 379.503 101.008 378.583 101.008C378.187 101.008 377.758 100.952 377.295 100.842C376.838 100.731 376.396 100.556 375.97 100.316C375.55 100.082 375.199 99.7781 374.919 99.403L376.006 97.9643C376.335 98.3516 376.707 98.6437 377.121 98.8404C377.535 99.0433 377.983 99.1448 378.464 99.1448C378.952 99.1448 379.366 99.0526 379.707 98.8681C380.054 98.6898 380.319 98.4254 380.502 98.0749C380.691 97.7306 380.785 97.3064 380.785 96.8022V89.3778L381.013 87.0997ZM374.334 92.2092V92.0155C374.334 91.2531 374.426 90.5614 374.609 89.9404C374.791 89.3132 375.053 88.7752 375.394 88.3264C375.741 87.8775 376.159 87.5301 376.646 87.2842C377.139 87.0383 377.694 86.9153 378.309 86.9153C378.961 86.9153 379.509 87.0352 379.954 87.275C380.404 87.5148 380.776 87.856 381.068 88.2987C381.367 88.7414 381.598 89.2671 381.763 89.8758C381.933 90.4784 382.064 91.1424 382.156 91.868V92.3937C382.07 93.1007 381.933 93.7494 381.744 94.3397C381.562 94.9299 381.318 95.4464 381.013 95.8891C380.709 96.3257 380.331 96.6638 379.88 96.9036C379.43 97.1434 378.9 97.2633 378.291 97.2633C377.682 97.2633 377.133 97.1373 376.646 96.8852C376.159 96.6331 375.741 96.2796 375.394 95.8246C375.053 95.3696 374.791 94.8346 374.609 94.2198C374.426 93.6049 374.334 92.9347 374.334 92.2092ZM376.747 92.0155V92.2092C376.747 92.6396 376.789 93.0423 376.874 93.4174C376.96 93.7925 377.091 94.1245 377.267 94.4135C377.444 94.6963 377.666 94.9176 377.934 95.0775C378.202 95.2374 378.522 95.3173 378.894 95.3173C379.393 95.3173 379.801 95.2128 380.118 95.0037C380.441 94.7885 380.684 94.4965 380.849 94.1276C381.02 93.7525 381.129 93.3313 381.178 92.864V91.416C381.147 91.0471 381.08 90.7059 380.977 90.3923C380.879 90.0787 380.742 89.8082 380.566 89.5807C380.389 89.3532 380.164 89.1749 379.89 89.0458C379.615 88.9166 379.29 88.8521 378.912 88.8521C378.546 88.8521 378.227 88.9351 377.953 89.1011C377.678 89.261 377.453 89.4854 377.276 89.7744C377.1 90.0634 376.966 90.3984 376.874 90.7797C376.789 91.1609 376.747 91.5728 376.747 92.0155Z" fill="white"/>
<path d="M366.641 89.2302V97.0789H364.229V87.0997H366.495L366.641 89.2302ZM366.257 91.7296H365.545C365.551 91.0041 365.648 90.3462 365.837 89.7559C366.026 89.1657 366.291 88.6584 366.632 88.2342C366.979 87.8099 367.39 87.484 367.866 87.2565C368.341 87.029 368.871 86.9153 369.455 86.9153C369.93 86.9153 370.36 86.9829 370.744 87.1182C371.127 87.2535 371.456 87.4687 371.73 87.7638C372.011 88.0589 372.224 88.4463 372.37 88.9259C372.522 89.3993 372.598 89.9834 372.598 90.6782V97.0789H370.168V90.6598C370.168 90.2048 370.101 89.8451 369.967 89.5807C369.839 89.3163 369.65 89.1288 369.401 89.0181C369.157 88.9074 368.855 88.8521 368.496 88.8521C368.124 88.8521 367.799 88.9289 367.518 89.0827C367.244 89.2302 367.013 89.4362 366.824 89.7006C366.641 89.965 366.501 90.2693 366.404 90.6136C366.306 90.958 366.257 91.33 366.257 91.7296Z" fill="white"/>
<path d="M361.972 87.0997V97.0789H359.551V87.0997H361.972ZM359.387 84.4897C359.387 84.1269 359.508 83.8256 359.752 83.5858C360.002 83.346 360.337 83.2261 360.757 83.2261C361.177 83.2261 361.509 83.346 361.753 83.5858C362.003 83.8256 362.128 84.1269 362.128 84.4897C362.128 84.8463 362.003 85.1445 361.753 85.3843C361.509 85.6241 361.177 85.744 360.757 85.744C360.337 85.744 360.002 85.6241 359.752 85.3843C359.508 85.1445 359.387 84.8463 359.387 84.4897Z" fill="white"/>
<path d="M354.8 94.9576V82.9125H357.23V97.0788H355.037L354.8 94.9576ZM348.45 92.2092V92.0155C348.45 91.2531 348.535 90.5614 348.706 89.9404C348.882 89.3132 349.138 88.7752 349.473 88.3264C349.808 87.8775 350.213 87.5301 350.688 87.2842C351.17 87.0382 351.715 86.9153 352.324 86.9153C352.915 86.9153 353.429 87.0352 353.868 87.2749C354.313 87.5147 354.69 87.856 355.001 88.2987C355.318 88.7414 355.57 89.2671 355.759 89.8758C355.948 90.4784 356.085 91.1424 356.17 91.8679V92.3936C356.085 93.1007 355.948 93.7494 355.759 94.3397C355.57 94.9299 355.318 95.4464 355.001 95.8891C354.69 96.3256 354.313 96.6638 353.868 96.9036C353.423 97.1434 352.903 97.2633 352.306 97.2633C351.703 97.2633 351.16 97.1373 350.679 96.8852C350.204 96.6331 349.799 96.2795 349.464 95.8245C349.135 95.3695 348.882 94.8346 348.706 94.2198C348.535 93.6049 348.45 92.9347 348.45 92.2092ZM350.871 92.0155V92.2092C350.871 92.6396 350.908 93.0423 350.981 93.4174C351.054 93.7924 351.173 94.1245 351.337 94.4134C351.502 94.6963 351.712 94.9176 351.968 95.0775C352.229 95.2373 352.546 95.3173 352.918 95.3173C353.393 95.3173 353.783 95.2127 354.087 95.0037C354.398 94.7885 354.638 94.4964 354.809 94.1275C354.98 93.7525 355.089 93.3313 355.138 92.864V91.416C355.114 91.0471 355.05 90.7058 354.946 90.3923C354.849 90.0787 354.709 89.8082 354.526 89.5807C354.349 89.3532 354.13 89.1749 353.868 89.0457C353.606 88.9166 353.295 88.8521 352.936 88.8521C352.564 88.8521 352.248 88.9351 351.986 89.1011C351.724 89.2609 351.511 89.4854 351.346 89.7743C351.182 90.0633 351.06 90.3984 350.981 90.7796C350.908 91.1608 350.871 91.5728 350.871 92.0155Z" fill="white"/>
<path d="M340.784 89.2302V97.0789H338.372V87.0997H340.638L340.784 89.2302ZM340.4 91.7296H339.688C339.694 91.0041 339.791 90.3462 339.98 89.7559C340.169 89.1657 340.434 88.6584 340.775 88.2342C341.122 87.8099 341.533 87.484 342.008 87.2565C342.484 87.029 343.013 86.9153 343.598 86.9153C344.073 86.9153 344.503 86.9829 344.886 87.1182C345.27 87.2535 345.599 87.4687 345.873 87.7638C346.153 88.0589 346.367 88.4463 346.513 88.9259C346.665 89.3993 346.741 89.9834 346.741 90.6782V97.0789H344.311V90.6598C344.311 90.2048 344.244 89.8451 344.11 89.5807C343.982 89.3163 343.793 89.1288 343.543 89.0181C343.3 88.9074 342.998 88.8521 342.639 88.8521C342.267 88.8521 341.941 88.9289 341.661 89.0827C341.387 89.2302 341.156 89.4362 340.967 89.7006C340.784 89.965 340.644 90.2693 340.547 90.6136C340.449 90.958 340.4 91.33 340.4 91.7296Z" fill="white"/>
<path d="M332.789 97.2633C332.04 97.2633 331.367 97.1404 330.77 96.8944C330.173 96.6485 329.665 96.3072 329.244 95.8707C328.83 95.428 328.51 94.9146 328.285 94.3305C328.066 93.7402 327.956 93.1069 327.956 92.4305V92.0616C327.956 91.2931 328.066 90.5952 328.285 89.968C328.504 89.3347 328.815 88.7906 329.217 88.3356C329.619 87.8806 330.1 87.5301 330.66 87.2842C331.221 87.0383 331.839 86.9153 332.515 86.9153C333.216 86.9153 333.834 87.0352 334.37 87.275C334.906 87.5086 335.354 87.8406 335.713 88.271C336.073 88.7014 336.344 89.2179 336.526 89.8205C336.709 90.4169 336.8 91.0779 336.8 91.8034V92.8271H329.052V91.1486H334.425V90.9641C334.413 90.5768 334.34 90.2232 334.206 89.9035C334.072 89.5776 333.864 89.3194 333.584 89.1288C333.304 88.932 332.942 88.8336 332.497 88.8336C332.138 88.8336 331.824 88.9136 331.556 89.0734C331.294 89.2271 331.075 89.4485 330.898 89.7375C330.727 90.0203 330.6 90.3585 330.514 90.752C330.429 91.1455 330.386 91.582 330.386 92.0616V92.4305C330.386 92.8487 330.441 93.236 330.551 93.5926C330.667 93.9492 330.834 94.2597 331.053 94.5241C331.279 94.7824 331.547 94.9853 331.857 95.1328C332.174 95.2743 332.534 95.345 332.936 95.345C333.441 95.345 333.898 95.2466 334.306 95.0498C334.72 94.8469 335.08 94.5487 335.384 94.1552L336.599 95.428C336.392 95.7354 336.112 96.0305 335.759 96.3134C335.412 96.5962 334.991 96.8268 334.498 97.0051C334.005 97.1772 333.435 97.2633 332.789 97.2633Z" fill="white"/>
<path d="M324.201 89.138V97.0789H321.789V87.0997H324.073L324.201 89.138ZM327.207 87.0352L327.17 89.304C327.036 89.2794 326.884 89.261 326.713 89.2487C326.549 89.2364 326.394 89.2302 326.247 89.2302C325.876 89.2302 325.55 89.2825 325.27 89.387C324.99 89.4854 324.755 89.6299 324.566 89.8205C324.384 90.0111 324.243 90.2447 324.146 90.5214C324.049 90.792 323.994 91.0994 323.982 91.4437L323.461 91.3791C323.461 90.7458 323.525 90.1587 323.653 89.6176C323.781 89.0765 323.966 88.6031 324.21 88.1973C324.454 87.7915 324.758 87.4779 325.124 87.2565C325.495 87.029 325.922 86.9153 326.403 86.9153C326.537 86.9153 326.68 86.9276 326.832 86.9522C326.991 86.9706 327.115 86.9983 327.207 87.0352Z" fill="white"/>
<path d="M316.809 83.6504V97.0789H314.306V83.6504H316.809ZM320.939 83.6504V85.6517H310.221V83.6504H320.939Z" fill="white"/>
<path d="M305.105 87.0998V88.8521H299.44V87.0998H305.105ZM300.957 84.6465H303.378V94.2014C303.378 94.4965 303.418 94.724 303.497 94.8839C303.576 95.0437 303.695 95.1513 303.853 95.2067C304.012 95.262 304.2 95.2897 304.42 95.2897C304.578 95.2897 304.724 95.2804 304.858 95.262C304.992 95.2435 305.105 95.2251 305.196 95.2067L305.205 97.0328C305.004 97.1004 304.776 97.1557 304.52 97.1988C304.27 97.2418 303.987 97.2633 303.67 97.2633C303.128 97.2633 302.653 97.1711 302.245 96.9867C301.837 96.7961 301.52 96.4917 301.295 96.0736C301.069 95.6493 300.957 95.0898 300.957 94.395V84.6465Z" fill="white"/>
<path d="M296.233 94.3489C296.233 94.1399 296.178 93.9523 296.069 93.7863C295.959 93.6203 295.752 93.4697 295.447 93.3344C295.149 93.193 294.71 93.0608 294.132 92.9378C293.62 92.8271 293.148 92.6888 292.715 92.5228C292.283 92.3568 291.911 92.1569 291.601 91.9233C291.29 91.6835 291.046 91.4037 290.87 91.084C290.699 90.7581 290.614 90.3831 290.614 89.9588C290.614 89.5469 290.702 89.1595 290.879 88.7967C291.055 88.4278 291.311 88.105 291.646 87.8283C291.981 87.5455 292.389 87.3242 292.871 87.1643C293.352 86.9983 293.894 86.9153 294.497 86.9153C295.338 86.9153 296.059 87.0536 296.662 87.3303C297.272 87.607 297.738 87.9882 298.06 88.4739C298.383 88.9535 298.545 89.4946 298.545 90.0972H296.132C296.132 89.8328 296.072 89.593 295.95 89.3778C295.834 89.1626 295.654 88.9904 295.411 88.8613C295.167 88.726 294.859 88.6584 294.488 88.6584C294.153 88.6584 293.87 88.7137 293.638 88.8244C293.413 88.9351 293.242 89.0796 293.126 89.2579C293.011 89.4362 292.953 89.633 292.953 89.8482C292.953 90.008 292.983 90.1525 293.044 90.2816C293.111 90.4046 293.218 90.5183 293.364 90.6229C293.51 90.7274 293.708 90.8227 293.958 90.9088C294.214 90.9949 294.527 91.0779 294.899 91.1578C295.636 91.3054 296.279 91.5021 296.827 91.7481C297.381 91.9879 297.814 92.3076 298.124 92.7072C298.435 93.1069 298.59 93.6172 298.59 94.2382C298.59 94.6809 298.496 95.0867 298.307 95.4556C298.118 95.8184 297.844 96.1351 297.485 96.4056C297.125 96.6761 296.696 96.8883 296.196 97.042C295.697 97.1895 295.134 97.2633 294.506 97.2633C293.599 97.2633 292.831 97.1004 292.204 96.7745C291.576 96.4425 291.101 96.0244 290.778 95.5202C290.455 95.0099 290.294 94.4811 290.294 93.9339H292.606C292.624 94.3212 292.728 94.6317 292.916 94.8654C293.105 95.099 293.343 95.2681 293.629 95.3726C293.921 95.471 294.229 95.5202 294.552 95.5202C294.917 95.5202 295.225 95.471 295.475 95.3726C295.724 95.2681 295.913 95.1298 296.041 94.9576C296.169 94.7793 296.233 94.5764 296.233 94.3489Z" fill="white"/>
<path d="M285.168 97.2633C284.419 97.2633 283.746 97.1404 283.149 96.8944C282.552 96.6485 282.043 96.3072 281.623 95.8707C281.209 95.428 280.889 94.9146 280.664 94.3305C280.444 93.7402 280.335 93.1069 280.335 92.4305V92.0616C280.335 91.2931 280.444 90.5952 280.664 89.968C280.883 89.3347 281.194 88.7906 281.596 88.3356C281.998 87.8806 282.479 87.5301 283.039 87.2842C283.6 87.0383 284.218 86.9153 284.894 86.9153C285.595 86.9153 286.213 87.0352 286.749 87.275C287.285 87.5086 287.733 87.8406 288.092 88.271C288.451 88.7014 288.722 89.2179 288.905 89.8205C289.088 90.4169 289.179 91.0779 289.179 91.8034V92.8271H281.431V91.1486H286.804V90.9641C286.792 90.5768 286.718 90.2232 286.584 89.9035C286.45 89.5776 286.243 89.3194 285.963 89.1288C285.683 88.932 285.32 88.8336 284.876 88.8336C284.516 88.8336 284.203 88.9136 283.935 89.0734C283.673 89.2271 283.454 89.4485 283.277 89.7375C283.106 90.0203 282.978 90.3585 282.893 90.752C282.808 91.1455 282.765 91.582 282.765 92.0616V92.4305C282.765 92.8487 282.82 93.236 282.93 93.5926C283.045 93.9492 283.213 94.2597 283.432 94.5241C283.658 94.7824 283.926 94.9853 284.236 95.1328C284.553 95.2743 284.912 95.345 285.314 95.345C285.82 95.345 286.277 95.2466 286.685 95.0498C287.099 94.8469 287.459 94.5487 287.763 94.1552L288.978 95.428C288.771 95.7354 288.491 96.0305 288.138 96.3134C287.79 96.5962 287.37 96.8268 286.877 97.0051C286.383 97.1772 285.814 97.2633 285.168 97.2633Z" fill="white"/>
<path d="M279.12 87.0998V88.8521H273.455V87.0998H279.12ZM274.972 84.6465H277.393V94.2014C277.393 94.4965 277.433 94.724 277.512 94.8839C277.591 95.0437 277.71 95.1513 277.868 95.2067C278.026 95.262 278.215 95.2897 278.435 95.2897C278.593 95.2897 278.739 95.2804 278.873 95.262C279.007 95.2435 279.12 95.2251 279.211 95.2067L279.22 97.0328C279.019 97.1004 278.791 97.1557 278.535 97.1988C278.285 97.2418 278.002 97.2633 277.685 97.2633C277.143 97.2633 276.668 97.1711 276.26 96.9867C275.852 96.7961 275.535 96.4917 275.31 96.0736C275.084 95.6493 274.972 95.0898 274.972 94.395V84.6465Z" fill="white"/>
<path d="M270.248 94.3489C270.248 94.1399 270.193 93.9523 270.083 93.7863C269.974 93.6203 269.767 93.4697 269.462 93.3344C269.164 93.193 268.725 93.0608 268.146 92.9378C267.635 92.8271 267.163 92.6888 266.73 92.5228C266.298 92.3568 265.926 92.1569 265.615 91.9233C265.305 91.6835 265.061 91.4037 264.885 91.084C264.714 90.7581 264.629 90.3831 264.629 89.9588C264.629 89.5469 264.717 89.1595 264.894 88.7967C265.07 88.4278 265.326 88.105 265.661 87.8283C265.996 87.5455 266.404 87.3242 266.885 87.1643C267.367 86.9983 267.909 86.9153 268.512 86.9153C269.352 86.9153 270.074 87.0536 270.677 87.3303C271.286 87.607 271.752 87.9882 272.075 88.4739C272.398 88.9535 272.559 89.4946 272.559 90.0972H270.147C270.147 89.8328 270.086 89.593 269.965 89.3778C269.849 89.1626 269.669 88.9904 269.426 88.8613C269.182 88.726 268.874 88.6584 268.503 88.6584C268.168 88.6584 267.884 88.7137 267.653 88.8244C267.428 88.9351 267.257 89.0796 267.141 89.2579C267.026 89.4362 266.968 89.633 266.968 89.8482C266.968 90.008 266.998 90.1525 267.059 90.2816C267.126 90.4046 267.233 90.5183 267.379 90.6229C267.525 90.7274 267.723 90.8227 267.973 90.9088C268.229 90.9949 268.542 91.0779 268.914 91.1578C269.651 91.3054 270.294 91.5021 270.842 91.7481C271.396 91.9879 271.828 92.3076 272.139 92.7072C272.45 93.1069 272.605 93.6172 272.605 94.2382C272.605 94.6809 272.511 95.0867 272.322 95.4556C272.133 95.8184 271.859 96.1351 271.5 96.4056C271.14 96.6761 270.711 96.8883 270.211 97.042C269.712 97.1895 269.148 97.2633 268.521 97.2633C267.613 97.2633 266.846 97.1004 266.218 96.7745C265.591 96.4425 265.116 96.0244 264.793 95.5202C264.47 95.0099 264.309 94.4811 264.309 93.9339H266.621C266.639 94.3212 266.742 94.6317 266.931 94.8654C267.12 95.099 267.358 95.2681 267.644 95.3726C267.936 95.471 268.244 95.5202 268.567 95.5202C268.932 95.5202 269.24 95.471 269.489 95.3726C269.739 95.2681 269.928 95.1298 270.056 94.9576C270.184 94.7793 270.248 94.5764 270.248 94.3489Z" fill="white"/>
<path d="M260.207 94.9576V90.3554C260.207 90.0172 260.149 89.7252 260.033 89.4792C259.917 89.2333 259.741 89.0427 259.503 88.9074C259.265 88.7722 258.964 88.7045 258.599 88.7045C258.276 88.7045 257.992 88.7599 257.749 88.8705C257.511 88.9812 257.328 89.138 257.201 89.3409C257.073 89.5376 257.009 89.7651 257.009 90.0234H254.587C254.587 89.6114 254.685 89.221 254.88 88.8521C255.075 88.477 255.352 88.145 255.711 87.856C256.077 87.5609 256.512 87.3303 257.018 87.1643C257.53 86.9983 258.102 86.9153 258.736 86.9153C259.485 86.9153 260.152 87.0444 260.737 87.3026C261.327 87.5547 261.79 87.9359 262.125 88.4463C262.466 88.9566 262.637 89.5991 262.637 90.3739V94.727C262.637 95.2251 262.667 95.6524 262.728 96.009C262.795 96.3595 262.893 96.6638 263.021 96.9221V97.0789H260.563C260.447 96.8268 260.359 96.5071 260.298 96.1197C260.237 95.7262 260.207 95.3388 260.207 94.9576ZM260.545 91.001L260.563 92.449H259.037C258.659 92.449 258.327 92.489 258.041 92.5689C257.755 92.6427 257.52 92.7533 257.338 92.9009C257.155 93.0423 257.018 93.2145 256.926 93.4174C256.835 93.6141 256.789 93.8386 256.789 94.0907C256.789 94.3366 256.844 94.558 256.954 94.7547C257.07 94.9515 257.234 95.1083 257.447 95.2251C257.667 95.3357 257.922 95.3911 258.215 95.3911C258.641 95.3911 259.013 95.305 259.329 95.1328C259.646 94.9545 259.893 94.7393 260.07 94.4872C260.246 94.2352 260.341 93.9954 260.353 93.7679L261.047 94.8193C260.962 95.0714 260.834 95.3388 260.663 95.6217C260.493 95.9045 260.274 96.1689 260.006 96.4148C259.738 96.6608 259.415 96.8637 259.037 97.0235C258.659 97.1834 258.221 97.2633 257.721 97.2633C257.082 97.2633 256.509 97.1342 256.004 96.876C255.498 96.6177 255.099 96.2642 254.807 95.8153C254.514 95.3665 254.368 94.8562 254.368 94.2843C254.368 93.7556 254.466 93.2883 254.661 92.8825C254.855 92.4767 255.145 92.1354 255.529 91.8587C255.912 91.5759 256.387 91.3638 256.954 91.2224C257.526 91.0748 258.181 91.001 258.918 91.001H260.545Z" fill="white"/>
<path d="M247.479 83.6504V97.0789H244.966V83.6504H247.479ZM252.842 89.4516V91.4529H246.821V89.4516H252.842ZM253.546 83.6504V85.6517H246.821V83.6504H253.546Z" fill="white"/>
</g>
</svg>
