<svg width="435" height="118" viewBox="0 0 435 118" fill="none" xmlns="http://www.w3.org/2000/svg">
<path d="M24.1502 53.0181C30.1008 53.0181 36.054 53.0437 42.0046 53.0028C44.3 52.9874 46.0893 53.7854 47.127 55.8724C48.2287 58.0872 48.1802 60.3174 46.7922 62.4069C45.7876 63.921 44.3025 64.742 42.4877 64.7445C30.1187 64.765 17.7472 64.7803 5.37818 64.7343C2.22651 64.7241 -0.0203104 62.1358 0.000138449 58.8084C0.0205873 55.5808 2.29552 53.1434 5.40374 53.0232C5.4881 53.0207 5.575 53.0181 5.65935 53.0181C11.8221 53.0181 17.9874 53.0181 24.1502 53.0181Z" fill="#EE2936"/>
<path d="M81.6411 64.8413C90.9172 64.8413 100.191 64.8592 109.467 64.8336C113.922 64.8208 116.68 61.0177 115.346 56.8157C114.525 54.23 112.396 52.8208 109.206 52.8156C100.528 52.8003 91.8476 52.808 83.1696 52.8054C81.6385 52.8054 80.1048 52.8361 78.5737 52.7977C75.3633 52.7185 73.0628 50.3936 72.981 47.1941C72.8941 43.7031 74.9364 41.3092 78.2414 41.0534C78.9188 40.9997 79.6013 40.9972 80.2812 40.9972C96.3642 40.9946 112.447 40.9972 128.53 40.9844C129.632 40.9844 130.764 40.9742 131.828 40.7337C134.739 40.079 136.518 37.4268 136.191 34.4217C135.846 31.2299 133.691 29.0764 130.608 29.0508C123.886 28.9946 117.163 29.0253 110.441 29.0048C109.679 29.0048 108.907 28.9588 108.158 28.8309C104.991 28.2887 102.903 25.7388 103.148 22.7669C103.429 19.3526 105.671 17.1556 109.053 17.1301C114.712 17.0866 120.371 17.0866 126.028 17.1429C127.452 17.1582 128.523 16.7081 129.56 15.749C139.289 6.7643 150.768 1.33205 163.945 0.393426C188.719 -1.37129 207.92 8.41136 220.507 29.8872C240.641 64.2479 220.606 107.494 182.543 116.092C171.866 118.504 161.356 117.959 150.983 114.575C142.862 111.926 135.669 107.665 129.456 101.795C128.489 100.882 127.482 100.478 126.156 100.483C113.989 100.517 101.819 100.511 89.6519 100.501C86.582 100.499 84.3326 98.9565 83.6221 96.358C82.7862 93.3069 84.302 88.9155 88.7343 88.7442C89.3707 88.7186 90.0097 88.6751 90.6462 88.6751C101.198 88.6649 111.749 88.6623 122.301 88.6495C125.575 88.6444 127.569 87.3963 128.425 84.8695C129.875 80.5932 127.308 76.8004 122.815 76.7313C117.795 76.6546 112.774 76.7083 107.754 76.7058C90.2245 76.6981 72.6947 76.6981 55.1675 76.6725C54.1118 76.6725 53.0204 76.629 52.0107 76.3579C49.0354 75.5651 47.5401 73.0357 47.9721 69.7594C48.3631 66.7952 50.5537 64.8694 53.6926 64.8592C61.9028 64.8336 70.1156 64.8489 78.3284 64.8489C79.4351 64.8489 80.5419 64.8489 81.6462 64.8489V64.8413H81.6411Z" fill="#EE2936"/>
<path d="M71.9024 29.735C68.6982 29.735 65.483 29.8694 62.287 29.7026C57.7917 29.4687 55.35 26.2978 56.4098 22.3554C57.0429 19.9984 59.1598 18.3533 62.1301 18.306C68.266 18.2064 74.4075 18.184 80.5434 18.296C83.1613 18.3433 85.2039 19.5728 86.093 21.9049C86.9987 24.2843 86.5803 26.5741 84.5074 28.2889C83.61 29.0306 82.1896 29.5433 80.9646 29.6205C77.9558 29.8071 74.925 29.6827 71.9024 29.6827C71.9024 29.7001 71.9024 29.72 71.9024 29.7375V29.735Z" fill="#EE2936"/>
<path d="M145.11 48.9243L201 24.7668L172.439 53.4789L191.079 65.1861L136 89.7668L164.172 60.6045L145.11 48.9243Z" fill="#1B2D51"/>
<path d="M424.456 62.1724C424.456 61.2971 424.223 60.5118 423.758 59.8167C423.292 59.1216 422.413 58.4908 421.119 57.9244C419.852 57.3323 417.99 56.7788 415.532 56.2639C413.36 55.8005 411.355 55.2212 409.518 54.5261C407.682 53.8309 406.104 52.9942 404.785 52.0159C403.466 51.0118 402.431 49.8404 401.681 48.5017C400.957 47.1372 400.595 45.5667 400.595 43.7903C400.595 42.0654 400.97 40.4434 401.72 38.9244C402.47 37.3797 403.556 36.0281 404.979 34.8696C406.402 33.6853 408.135 32.7584 410.178 32.0891C412.221 31.3939 414.523 31.0464 417.084 31.0464C420.654 31.0464 423.719 31.6257 426.28 32.7842C428.866 33.9427 430.845 35.5389 432.216 37.5728C433.587 39.5809 434.272 41.8465 434.272 44.3696H424.029C424.029 43.2625 423.771 42.2584 423.253 41.3574C422.762 40.4563 421.999 39.7354 420.964 39.1948C419.93 38.6284 418.623 38.3452 417.045 38.3452C415.623 38.3452 414.42 38.5769 413.437 39.0403C412.48 39.5037 411.756 40.1087 411.264 40.8553C410.773 41.6019 410.527 42.4258 410.527 43.3269C410.527 43.9963 410.656 44.6013 410.915 45.1419C411.2 45.6568 411.652 46.1331 412.273 46.5708C412.894 47.0084 413.735 47.4075 414.795 47.7679C415.881 48.1284 417.214 48.4759 418.791 48.8106C421.921 49.4285 424.65 50.2523 426.978 51.2822C429.332 52.2862 431.168 53.625 432.488 55.2984C433.807 56.9719 434.466 59.1087 434.466 61.709C434.466 63.5626 434.065 65.2618 433.264 66.8066C432.462 68.3255 431.298 69.6514 429.772 70.7842C428.245 71.917 426.422 72.8052 424.301 73.4488C422.18 74.0667 419.787 74.3757 417.123 74.3757C413.269 74.3757 410.01 73.6934 407.346 72.3289C404.681 70.9387 402.664 69.188 401.293 67.0769C399.922 64.94 399.237 62.7259 399.237 60.4346H409.053C409.13 62.0566 409.57 63.3567 410.372 64.335C411.174 65.3133 412.183 66.0213 413.398 66.459C414.64 66.8709 415.946 67.0769 417.317 67.0769C418.869 67.0769 420.175 66.8709 421.236 66.459C422.296 66.0213 423.098 65.4421 423.641 64.7212C424.185 63.9746 424.456 63.125 424.456 62.1724Z" fill="#1B2D51"/>
<path d="M354.385 63.5627L363.58 31.8188H370.098L368.158 42.7863L358.885 73.6033H353.259L354.385 63.5627ZM349.302 31.8188L356.208 63.6399L356.829 73.6033H350.349L339.331 31.8188H349.302ZM378.634 63.1765L385.385 31.8188H395.318L384.376 73.6033H377.897L378.634 63.1765ZM371.107 31.8188L380.225 63.2537L381.428 73.6033H375.802L366.451 42.7863L364.55 31.8188H371.107Z" fill="#1B2D51"/>
<path d="M318.806 74.3757C315.624 74.3757 312.766 73.8608 310.231 72.8309C307.696 71.8011 305.536 70.3723 303.752 68.5444C301.993 66.6907 300.635 64.541 299.678 62.0952C298.747 59.6236 298.281 56.9719 298.281 54.1399V52.5952C298.281 49.377 298.747 46.4549 299.678 43.8289C300.609 41.1771 301.928 38.8987 303.635 36.9935C305.342 35.0884 307.386 33.6209 309.766 32.5911C312.145 31.5613 314.771 31.0464 317.642 31.0464C320.616 31.0464 323.242 31.5484 325.518 32.5525C327.794 33.5308 329.695 34.921 331.222 36.7232C332.748 38.5254 333.899 40.688 334.675 43.211C335.451 45.7083 335.839 48.4759 335.839 51.5139V55.8005H302.937V48.772H325.751V47.9996C325.699 46.3777 325.389 44.8973 324.82 43.5586C324.251 42.1941 323.371 41.1128 322.181 40.3147C320.991 39.4908 319.452 39.0789 317.564 39.0789C316.038 39.0789 314.706 39.4136 313.568 40.083C312.456 40.7266 311.524 41.6534 310.774 42.8635C310.05 44.0477 309.507 45.4637 309.145 47.1114C308.783 48.7591 308.602 50.587 308.602 52.5952V54.1399C308.602 55.8906 308.834 57.5125 309.3 59.0057C309.791 60.499 310.503 61.7991 311.434 62.9061C312.391 63.9874 313.529 64.837 314.848 65.4549C316.193 66.0471 317.719 66.3431 319.427 66.3431C321.573 66.3431 323.513 65.9312 325.246 65.1074C327.005 64.2578 328.531 63.0091 329.825 61.3614L334.985 66.6907C334.106 67.978 332.916 69.2137 331.416 70.398C329.941 71.5823 328.156 72.5477 326.061 73.2944C323.966 74.0152 321.548 74.3757 318.806 74.3757Z" fill="#1B2D51"/>
<path d="M289.862 17.3757V73.6033H279.153L255.136 34.5992V73.6033H244.466V17.3757H255.136L279.231 56.4184V17.3757H289.862Z" fill="#1B2D51"/>
<g opacity="0.76">
<path d="M432.109 93.7323C432.109 93.5233 432.054 93.3357 431.945 93.1697C431.835 93.0037 431.628 92.8531 431.323 92.7178C431.025 92.5764 430.586 92.4442 430.008 92.3212C429.496 92.2106 429.024 92.0722 428.591 91.9062C428.159 91.7402 427.787 91.5404 427.477 91.3067C427.166 91.0669 426.922 90.7872 426.746 90.4674C426.575 90.1416 426.49 89.7665 426.49 89.3422C426.49 88.9303 426.578 88.5429 426.755 88.1802C426.931 87.8113 427.187 87.4885 427.522 87.2118C427.857 86.9289 428.265 86.7076 428.747 86.5477C429.228 86.3817 429.77 86.2987 430.373 86.2987C431.214 86.2987 431.935 86.437 432.538 86.7137C433.148 86.9904 433.613 87.3716 433.936 87.8574C434.259 88.337 434.421 88.878 434.421 89.4806H432.008C432.008 89.2162 431.948 88.9764 431.826 88.7612C431.71 88.546 431.53 88.3738 431.287 88.2447C431.043 88.1095 430.735 88.0418 430.364 88.0418C430.029 88.0418 429.746 88.0972 429.514 88.2078C429.289 88.3185 429.118 88.463 429.002 88.6413C428.887 88.8196 428.829 89.0164 428.829 89.2316C428.829 89.3914 428.859 89.5359 428.92 89.665C428.987 89.788 429.094 89.9018 429.24 90.0063C429.386 90.1108 429.584 90.2061 429.834 90.2922C430.09 90.3783 430.403 90.4613 430.775 90.5412C431.512 90.6888 432.155 90.8855 432.703 91.1315C433.257 91.3713 433.69 91.691 434 92.0907C434.311 92.4903 434.466 93.0006 434.466 93.6217C434.466 94.0643 434.372 94.4702 434.183 94.8391C433.994 95.2018 433.72 95.5185 433.361 95.789C433.001 96.0596 432.572 96.2717 432.072 96.4254C431.573 96.573 431.01 96.6467 430.382 96.6467C429.475 96.6467 428.707 96.4838 428.08 96.1579C427.452 95.8259 426.977 95.4078 426.654 94.9036C426.331 94.3933 426.17 93.8645 426.17 93.3173H428.482C428.5 93.7047 428.603 94.0152 428.792 94.2488C428.981 94.4825 429.219 94.6515 429.505 94.7561C429.797 94.8544 430.105 94.9036 430.428 94.9036C430.793 94.9036 431.101 94.8544 431.351 94.7561C431.6 94.6515 431.789 94.5132 431.917 94.341C432.045 94.1627 432.109 93.9598 432.109 93.7323Z" fill="#1B2D51"/>
<path d="M415.608 94.0643L417.773 86.4832H419.308L418.851 89.1024L416.668 96.4623H415.343L415.608 94.0643ZM414.411 86.4832L416.037 94.0828L416.184 96.4623H414.658L412.063 86.4832H414.411ZM421.318 93.9721L422.908 86.4832H425.247L422.671 96.4623H421.145L421.318 93.9721ZM419.546 86.4832L421.693 93.9906L421.976 96.4623H420.651L418.449 89.1024L418.002 86.4832H419.546Z" fill="#1B2D51"/>
<path d="M407.229 96.6467C406.48 96.6467 405.807 96.5238 405.21 96.2778C404.613 96.0319 404.105 95.6906 403.684 95.2541C403.27 94.8114 402.95 94.298 402.725 93.7139C402.506 93.1236 402.396 92.4903 402.396 91.814V91.4451C402.396 90.6765 402.506 89.9786 402.725 89.3515C402.944 88.7182 403.255 88.174 403.657 87.719C404.059 87.264 404.54 86.9136 405.101 86.6676C405.661 86.4217 406.279 86.2987 406.955 86.2987C407.656 86.2987 408.274 86.4186 408.81 86.6584C409.346 86.892 409.794 87.2241 410.153 87.6545C410.513 88.0849 410.784 88.6013 410.966 89.2039C411.149 89.8003 411.24 90.4613 411.24 91.1868V92.2106H403.492V90.532H408.865V90.3475C408.853 89.9602 408.78 89.6066 408.646 89.2869C408.512 88.961 408.305 88.7028 408.024 88.5122C407.744 88.3154 407.382 88.2171 406.937 88.2171C406.578 88.2171 406.264 88.297 405.996 88.4569C405.734 88.6106 405.515 88.8319 405.338 89.1209C405.168 89.4037 405.04 89.7419 404.954 90.1354C404.869 90.5289 404.826 90.9655 404.826 91.4451V91.814C404.826 92.2321 404.881 92.6194 404.991 92.9761C405.107 93.3327 405.274 93.6432 405.493 93.9076C405.719 94.1658 405.987 94.3687 406.297 94.5163C406.614 94.6577 406.974 94.7284 407.376 94.7284C407.881 94.7284 408.338 94.63 408.746 94.4333C409.16 94.2304 409.52 93.9322 409.824 93.5386L411.039 94.8114C410.832 95.1188 410.552 95.414 410.199 95.6968C409.852 95.9796 409.431 96.2102 408.938 96.3885C408.445 96.5607 407.875 96.6467 407.229 96.6467Z" fill="#1B2D51"/>
<path d="M400.413 83.0338V96.4623H397.892L392.236 87.1472V96.4623H389.723V83.0338H392.236L397.91 92.3581V83.0338H400.413Z" fill="#1B2D51"/>
<path d="M380.513 86.4832H382.706V96.1579C382.706 97.0618 382.511 97.8273 382.122 98.4544C381.738 99.0877 381.199 99.5673 380.504 99.8932C379.81 100.225 379.003 100.391 378.083 100.391C377.687 100.391 377.258 100.336 376.795 100.225C376.338 100.115 375.896 99.9393 375.47 99.6995C375.05 99.4659 374.699 99.1615 374.419 98.7865L375.506 97.3477C375.835 97.735 376.207 98.0271 376.621 98.2239C377.035 98.4268 377.483 98.5282 377.964 98.5282C378.452 98.5282 378.866 98.436 379.207 98.2515C379.554 98.0732 379.819 97.8088 380.002 97.4584C380.191 97.114 380.285 96.6898 380.285 96.1856V88.7612L380.513 86.4832ZM373.834 91.5926V91.3989C373.834 90.6365 373.926 89.9448 374.109 89.3238C374.291 88.6966 374.553 88.1586 374.894 87.7098C375.241 87.261 375.659 86.9136 376.146 86.6676C376.639 86.4217 377.194 86.2987 377.809 86.2987C378.461 86.2987 379.009 86.4186 379.454 86.6584C379.904 86.8982 380.276 87.2394 380.568 87.6821C380.867 88.1248 381.098 88.6505 381.263 89.2592C381.433 89.8618 381.564 90.5258 381.656 91.2514V91.7771C381.57 92.4842 381.433 93.1328 381.244 93.7231C381.062 94.3134 380.818 94.8298 380.513 95.2725C380.209 95.7091 379.831 96.0473 379.38 96.2871C378.93 96.5269 378.4 96.6467 377.791 96.6467C377.182 96.6467 376.633 96.5207 376.146 96.2686C375.659 96.0165 375.241 95.663 374.894 95.208C374.553 94.753 374.291 94.2181 374.109 93.6032C373.926 92.9883 373.834 92.3182 373.834 91.5926ZM376.247 91.3989V91.5926C376.247 92.023 376.289 92.4258 376.374 92.8008C376.46 93.1759 376.591 93.5079 376.767 93.7969C376.944 94.0797 377.166 94.3011 377.434 94.4609C377.702 94.6208 378.022 94.7007 378.394 94.7007C378.893 94.7007 379.301 94.5962 379.618 94.3871C379.941 94.1719 380.184 93.8799 380.349 93.511C380.52 93.1359 380.629 92.7147 380.678 92.2474V90.7995C380.647 90.4305 380.58 90.0893 380.477 89.7757C380.379 89.4621 380.242 89.1916 380.066 88.9641C379.889 88.7366 379.664 88.5583 379.39 88.4292C379.115 88.3001 378.79 88.2355 378.412 88.2355C378.046 88.2355 377.727 88.3185 377.453 88.4845C377.178 88.6444 376.953 88.8688 376.776 89.1578C376.6 89.4468 376.466 89.7819 376.374 90.1631C376.289 90.5443 376.247 90.9562 376.247 91.3989Z" fill="#1B2D51"/>
<path d="M366.141 88.6136V96.4623H363.729V86.4832H365.995L366.141 88.6136ZM365.757 91.113H365.045C365.051 90.3875 365.148 89.7296 365.337 89.1393C365.526 88.5491 365.791 88.0418 366.132 87.6176C366.479 87.1933 366.89 86.8674 367.366 86.64C367.841 86.4125 368.371 86.2987 368.955 86.2987C369.43 86.2987 369.86 86.3663 370.244 86.5016C370.627 86.6369 370.956 86.8521 371.23 87.1472C371.511 87.4423 371.724 87.8297 371.87 88.3093C372.022 88.7827 372.098 89.3668 372.098 90.0616V96.4623H369.668V90.0432C369.668 89.5882 369.601 89.2285 369.467 88.9641C369.339 88.6997 369.15 88.5122 368.901 88.4015C368.657 88.2908 368.355 88.2355 367.996 88.2355C367.624 88.2355 367.299 88.3124 367.018 88.4661C366.744 88.6136 366.513 88.8196 366.324 89.084C366.141 89.3484 366.001 89.6528 365.904 89.9971C365.806 90.3414 365.757 90.7134 365.757 91.113Z" fill="#1B2D51"/>
<path d="M361.472 86.4832V96.4623H359.051V86.4832H361.472ZM358.887 83.8731C358.887 83.5103 359.008 83.209 359.252 82.9692C359.502 82.7295 359.837 82.6096 360.257 82.6096C360.677 82.6096 361.009 82.7295 361.253 82.9692C361.503 83.209 361.628 83.5103 361.628 83.8731C361.628 84.2297 361.503 84.5279 361.253 84.7677C361.009 85.0075 360.677 85.1274 360.257 85.1274C359.837 85.1274 359.502 85.0075 359.252 84.7677C359.008 84.5279 358.887 84.2297 358.887 83.8731Z" fill="#1B2D51"/>
<path d="M354.3 94.341V82.296H356.73V96.4623H354.537L354.3 94.341ZM347.95 91.5926V91.3989C347.95 90.6365 348.035 89.9448 348.206 89.3238C348.382 88.6966 348.638 88.1586 348.973 87.7098C349.308 87.2609 349.713 86.9135 350.188 86.6676C350.67 86.4216 351.215 86.2987 351.824 86.2987C352.415 86.2987 352.929 86.4186 353.368 86.6584C353.813 86.8982 354.19 87.2394 354.501 87.6821C354.818 88.1248 355.07 88.6505 355.259 89.2592C355.448 89.8618 355.585 90.5258 355.67 91.2514V91.7771C355.585 92.4841 355.448 93.1328 355.259 93.7231C355.07 94.3133 354.818 94.8298 354.501 95.2725C354.19 95.7091 353.813 96.0472 353.368 96.287C352.923 96.5268 352.403 96.6467 351.806 96.6467C351.203 96.6467 350.66 96.5207 350.179 96.2686C349.704 96.0165 349.299 95.6629 348.964 95.208C348.635 94.753 348.382 94.218 348.206 93.6032C348.035 92.9883 347.95 92.3181 347.95 91.5926ZM350.371 91.3989V91.5926C350.371 92.023 350.408 92.4257 350.481 92.8008C350.554 93.1759 350.673 93.5079 350.837 93.7969C351.002 94.0797 351.212 94.301 351.468 94.4609C351.729 94.6208 352.046 94.7007 352.418 94.7007C352.893 94.7007 353.283 94.5962 353.587 94.3871C353.898 94.1719 354.138 93.8799 354.309 93.5109C354.48 93.1359 354.589 92.7147 354.638 92.2474V90.7994C354.614 90.4305 354.55 90.0893 354.446 89.7757C354.349 89.4621 354.209 89.1916 354.026 88.9641C353.849 88.7366 353.63 88.5583 353.368 88.4292C353.106 88.3 352.795 88.2355 352.436 88.2355C352.064 88.2355 351.748 88.3185 351.486 88.4845C351.224 88.6444 351.011 88.8688 350.846 89.1578C350.682 89.4467 350.56 89.7818 350.481 90.1631C350.408 90.5443 350.371 90.9562 350.371 91.3989Z" fill="#1B2D51"/>
<path d="M340.284 88.6136V96.4623H337.872V86.4832H340.138L340.284 88.6136ZM339.9 91.113H339.188C339.194 90.3875 339.291 89.7296 339.48 89.1393C339.669 88.5491 339.934 88.0418 340.275 87.6176C340.622 87.1933 341.033 86.8674 341.508 86.64C341.984 86.4125 342.513 86.2987 343.098 86.2987C343.573 86.2987 344.003 86.3663 344.386 86.5016C344.77 86.6369 345.099 86.8521 345.373 87.1472C345.653 87.4423 345.867 87.8297 346.013 88.3093C346.165 88.7827 346.241 89.3668 346.241 90.0616V96.4623H343.811V90.0432C343.811 89.5882 343.744 89.2285 343.61 88.9641C343.482 88.6997 343.293 88.5122 343.043 88.4015C342.8 88.2908 342.498 88.2355 342.139 88.2355C341.767 88.2355 341.441 88.3124 341.161 88.4661C340.887 88.6136 340.656 88.8196 340.467 89.084C340.284 89.3484 340.144 89.6528 340.047 89.9971C339.949 90.3414 339.9 90.7134 339.9 91.113Z" fill="#1B2D51"/>
<path d="M332.289 96.6467C331.54 96.6467 330.867 96.5238 330.27 96.2778C329.673 96.0319 329.165 95.6906 328.744 95.2541C328.33 94.8114 328.01 94.298 327.785 93.7139C327.566 93.1236 327.456 92.4903 327.456 91.814V91.4451C327.456 90.6765 327.566 89.9786 327.785 89.3515C328.004 88.7182 328.315 88.174 328.717 87.719C329.119 87.264 329.6 86.9136 330.16 86.6676C330.721 86.4217 331.339 86.2987 332.015 86.2987C332.716 86.2987 333.334 86.4186 333.87 86.6584C334.406 86.892 334.854 87.2241 335.213 87.6545C335.573 88.0849 335.844 88.6013 336.026 89.2039C336.209 89.8003 336.3 90.4613 336.3 91.1868V92.2106H328.552V90.532H333.925V90.3475C333.913 89.9602 333.84 89.6066 333.706 89.2869C333.572 88.961 333.364 88.7028 333.084 88.5122C332.804 88.3154 332.442 88.2171 331.997 88.2171C331.638 88.2171 331.324 88.297 331.056 88.4569C330.794 88.6106 330.575 88.8319 330.398 89.1209C330.227 89.4037 330.1 89.7419 330.014 90.1354C329.929 90.5289 329.886 90.9655 329.886 91.4451V91.814C329.886 92.2321 329.941 92.6194 330.051 92.9761C330.167 93.3327 330.334 93.6432 330.553 93.9076C330.779 94.1658 331.047 94.3687 331.357 94.5163C331.674 94.6577 332.034 94.7284 332.436 94.7284C332.941 94.7284 333.398 94.63 333.806 94.4333C334.22 94.2304 334.58 93.9322 334.884 93.5386L336.099 94.8114C335.892 95.1188 335.612 95.414 335.259 95.6968C334.912 95.9796 334.491 96.2102 333.998 96.3885C333.505 96.5607 332.935 96.6467 332.289 96.6467Z" fill="#1B2D51"/>
<path d="M323.701 88.5214V96.4623H321.289V86.4832H323.573L323.701 88.5214ZM326.707 86.4186L326.67 88.6874C326.536 88.6628 326.384 88.6444 326.213 88.6321C326.049 88.6198 325.894 88.6136 325.747 88.6136C325.376 88.6136 325.05 88.6659 324.77 88.7704C324.49 88.8688 324.255 89.0133 324.066 89.2039C323.884 89.3945 323.743 89.6282 323.646 89.9048C323.549 90.1754 323.494 90.4828 323.482 90.8271L322.961 90.7626C322.961 90.1293 323.025 89.5421 323.153 89.001C323.281 88.4599 323.466 87.9865 323.71 87.5807C323.954 87.1749 324.258 86.8613 324.624 86.64C324.995 86.4125 325.422 86.2987 325.903 86.2987C326.037 86.2987 326.18 86.311 326.332 86.3356C326.491 86.354 326.615 86.3817 326.707 86.4186Z" fill="#1B2D51"/>
<path d="M316.309 83.0338V96.4623H313.806V83.0338H316.309ZM320.439 83.0338V85.0352H309.721V83.0338H320.439Z" fill="#1B2D51"/>
<path d="M304.605 86.4832V88.2355H298.94V86.4832H304.605ZM300.457 84.0299H302.878V93.5848C302.878 93.8799 302.918 94.1074 302.997 94.2673C303.076 94.4271 303.195 94.5347 303.353 94.5901C303.512 94.6454 303.7 94.6731 303.92 94.6731C304.078 94.6731 304.224 94.6639 304.358 94.6454C304.492 94.627 304.605 94.6085 304.696 94.5901L304.705 96.4162C304.504 96.4838 304.276 96.5392 304.02 96.5822C303.77 96.6253 303.487 96.6468 303.17 96.6468C302.628 96.6468 302.153 96.5545 301.745 96.3701C301.337 96.1795 301.02 95.8751 300.795 95.457C300.569 95.0328 300.457 94.4733 300.457 93.7785V84.0299Z" fill="#1B2D51"/>
<path d="M295.733 93.7323C295.733 93.5233 295.678 93.3357 295.569 93.1697C295.459 93.0037 295.252 92.8531 294.947 92.7178C294.649 92.5764 294.21 92.4442 293.632 92.3212C293.12 92.2106 292.648 92.0722 292.215 91.9062C291.783 91.7402 291.411 91.5404 291.101 91.3067C290.79 91.0669 290.546 90.7872 290.37 90.4674C290.199 90.1416 290.114 89.7665 290.114 89.3422C290.114 88.9303 290.202 88.5429 290.379 88.1802C290.555 87.8113 290.811 87.4885 291.146 87.2118C291.481 86.9289 291.889 86.7076 292.371 86.5477C292.852 86.3817 293.394 86.2987 293.997 86.2987C294.838 86.2987 295.559 86.437 296.162 86.7137C296.772 86.9904 297.238 87.3716 297.56 87.8574C297.883 88.337 298.045 88.878 298.045 89.4806H295.632C295.632 89.2162 295.572 88.9764 295.45 88.7612C295.334 88.546 295.154 88.3738 294.911 88.2447C294.667 88.1095 294.359 88.0418 293.988 88.0418C293.653 88.0418 293.37 88.0972 293.138 88.2078C292.913 88.3185 292.742 88.463 292.626 88.6413C292.511 88.8196 292.453 89.0164 292.453 89.2316C292.453 89.3914 292.483 89.5359 292.544 89.665C292.611 89.788 292.718 89.9018 292.864 90.0063C293.01 90.1108 293.208 90.2061 293.458 90.2922C293.714 90.3783 294.027 90.4613 294.399 90.5412C295.136 90.6888 295.779 90.8855 296.327 91.1315C296.881 91.3713 297.314 91.691 297.624 92.0907C297.935 92.4903 298.09 93.0006 298.09 93.6217C298.09 94.0643 297.996 94.4702 297.807 94.8391C297.618 95.2018 297.344 95.5185 296.985 95.789C296.625 96.0596 296.196 96.2717 295.696 96.4254C295.197 96.573 294.634 96.6467 294.006 96.6467C293.099 96.6467 292.331 96.4838 291.704 96.1579C291.076 95.8259 290.601 95.4078 290.278 94.9036C289.955 94.3933 289.794 93.8645 289.794 93.3173H292.106C292.124 93.7047 292.228 94.0152 292.416 94.2488C292.605 94.4825 292.843 94.6515 293.129 94.7561C293.421 94.8544 293.729 94.9036 294.052 94.9036C294.417 94.9036 294.725 94.8544 294.975 94.7561C295.224 94.6515 295.413 94.5132 295.541 94.341C295.669 94.1627 295.733 93.9598 295.733 93.7323Z" fill="#1B2D51"/>
<path d="M284.668 96.6467C283.919 96.6467 283.246 96.5238 282.649 96.2778C282.052 96.0319 281.543 95.6906 281.123 95.2541C280.709 94.8114 280.389 94.298 280.164 93.7139C279.944 93.1236 279.835 92.4903 279.835 91.814V91.4451C279.835 90.6765 279.944 89.9786 280.164 89.3515C280.383 88.7182 280.694 88.174 281.096 87.719C281.498 87.264 281.979 86.9136 282.539 86.6676C283.1 86.4217 283.718 86.2987 284.394 86.2987C285.095 86.2987 285.713 86.4186 286.249 86.6584C286.785 86.892 287.233 87.2241 287.592 87.6545C287.951 88.0849 288.222 88.6013 288.405 89.2039C288.588 89.8003 288.679 90.4613 288.679 91.1868V92.2106H280.931V90.532H286.304V90.3475C286.292 89.9602 286.218 89.6066 286.084 89.2869C285.95 88.961 285.743 88.7028 285.463 88.5122C285.183 88.3154 284.82 88.2171 284.376 88.2171C284.016 88.2171 283.703 88.297 283.435 88.4569C283.173 88.6106 282.954 88.8319 282.777 89.1209C282.606 89.4037 282.478 89.7419 282.393 90.1354C282.308 90.5289 282.265 90.9655 282.265 91.4451V91.814C282.265 92.2321 282.32 92.6194 282.43 92.9761C282.545 93.3327 282.713 93.6432 282.932 93.9076C283.158 94.1658 283.426 94.3687 283.736 94.5163C284.053 94.6577 284.412 94.7284 284.814 94.7284C285.32 94.7284 285.777 94.63 286.185 94.4333C286.599 94.2304 286.959 93.9322 287.263 93.5386L288.478 94.8114C288.271 95.1188 287.991 95.414 287.638 95.6968C287.29 95.9796 286.87 96.2102 286.377 96.3885C285.883 96.5607 285.314 96.6467 284.668 96.6467Z" fill="#1B2D51"/>
<path d="M278.62 86.4832V88.2355H272.955V86.4832H278.62ZM274.472 84.0299H276.893V93.5848C276.893 93.8799 276.933 94.1074 277.012 94.2673C277.091 94.4271 277.21 94.5347 277.368 94.5901C277.526 94.6454 277.715 94.6731 277.935 94.6731C278.093 94.6731 278.239 94.6639 278.373 94.6454C278.507 94.627 278.62 94.6085 278.711 94.5901L278.72 96.4162C278.519 96.4838 278.291 96.5392 278.035 96.5822C277.785 96.6253 277.502 96.6468 277.185 96.6468C276.643 96.6468 276.168 96.5545 275.76 96.3701C275.352 96.1795 275.035 95.8751 274.81 95.457C274.584 95.0328 274.472 94.4733 274.472 93.7785V84.0299Z" fill="#1B2D51"/>
<path d="M269.748 93.7323C269.748 93.5233 269.693 93.3357 269.583 93.1697C269.474 93.0037 269.267 92.8531 268.962 92.7178C268.664 92.5764 268.225 92.4442 267.646 92.3212C267.135 92.2106 266.663 92.0722 266.23 91.9062C265.798 91.7402 265.426 91.5404 265.115 91.3067C264.805 91.0669 264.561 90.7872 264.385 90.4674C264.214 90.1416 264.129 89.7665 264.129 89.3422C264.129 88.9303 264.217 88.5429 264.394 88.1802C264.57 87.8113 264.826 87.4885 265.161 87.2118C265.496 86.9289 265.904 86.7076 266.385 86.5477C266.867 86.3817 267.409 86.2987 268.012 86.2987C268.852 86.2987 269.574 86.437 270.177 86.7137C270.786 86.9904 271.252 87.3716 271.575 87.8574C271.898 88.337 272.059 88.878 272.059 89.4806H269.647C269.647 89.2162 269.586 88.9764 269.465 88.7612C269.349 88.546 269.169 88.3738 268.926 88.2447C268.682 88.1095 268.374 88.0418 268.003 88.0418C267.668 88.0418 267.384 88.0972 267.153 88.2078C266.928 88.3185 266.757 88.463 266.641 88.6413C266.526 88.8196 266.468 89.0164 266.468 89.2316C266.468 89.3914 266.498 89.5359 266.559 89.665C266.626 89.788 266.733 89.9018 266.879 90.0063C267.025 90.1108 267.223 90.2061 267.473 90.2922C267.729 90.3783 268.042 90.4613 268.414 90.5412C269.151 90.6888 269.794 90.8855 270.342 91.1315C270.896 91.3713 271.328 91.691 271.639 92.0907C271.95 92.4903 272.105 93.0006 272.105 93.6217C272.105 94.0643 272.011 94.4702 271.822 94.8391C271.633 95.2018 271.359 95.5185 271 95.789C270.64 96.0596 270.211 96.2717 269.711 96.4254C269.212 96.573 268.648 96.6467 268.021 96.6467C267.113 96.6467 266.346 96.4838 265.718 96.1579C265.091 95.8259 264.616 95.4078 264.293 94.9036C263.97 94.3933 263.809 93.8645 263.809 93.3173H266.121C266.139 93.7047 266.242 94.0152 266.431 94.2488C266.62 94.4825 266.858 94.6515 267.144 94.7561C267.436 94.8544 267.744 94.9036 268.067 94.9036C268.432 94.9036 268.74 94.8544 268.989 94.7561C269.239 94.6515 269.428 94.5132 269.556 94.341C269.684 94.1627 269.748 93.9598 269.748 93.7323Z" fill="#1B2D51"/>
<path d="M259.707 94.341V89.7388C259.707 89.4007 259.649 89.1086 259.533 88.8627C259.417 88.6167 259.241 88.4261 259.003 88.2908C258.765 88.1556 258.464 88.0879 258.099 88.0879C257.776 88.0879 257.492 88.1433 257.249 88.254C257.011 88.3646 256.828 88.5214 256.701 88.7243C256.573 88.9211 256.509 89.1486 256.509 89.4068H254.087C254.087 88.9949 254.185 88.6044 254.38 88.2355C254.575 87.8604 254.852 87.5284 255.211 87.2394C255.577 86.9443 256.012 86.7137 256.518 86.5477C257.03 86.3817 257.602 86.2987 258.236 86.2987C258.985 86.2987 259.652 86.4278 260.237 86.6861C260.827 86.9382 261.29 87.3194 261.625 87.8297C261.966 88.34 262.137 88.9826 262.137 89.7573V94.1105C262.137 94.6085 262.167 95.0358 262.228 95.3924C262.295 95.7429 262.393 96.0473 262.521 96.3055V96.4623H260.063C259.947 96.2102 259.859 95.8905 259.798 95.5031C259.737 95.1096 259.707 94.7222 259.707 94.341ZM260.045 90.3844L260.063 91.8324H258.537C258.159 91.8324 257.827 91.8724 257.541 91.9523C257.255 92.0261 257.02 92.1368 256.838 92.2843C256.655 92.4258 256.518 92.5979 256.426 92.8008C256.335 92.9976 256.289 93.222 256.289 93.4741C256.289 93.72 256.344 93.9414 256.454 94.1381C256.57 94.3349 256.734 94.4917 256.947 94.6085C257.167 94.7192 257.422 94.7745 257.715 94.7745C258.141 94.7745 258.513 94.6884 258.829 94.5163C259.146 94.338 259.393 94.1228 259.57 93.8707C259.746 93.6186 259.841 93.3788 259.853 93.1513L260.547 94.2027C260.462 94.4548 260.334 94.7222 260.163 95.0051C259.993 95.2879 259.774 95.5523 259.506 95.7982C259.238 96.0442 258.915 96.2471 258.537 96.407C258.159 96.5668 257.721 96.6467 257.221 96.6467C256.582 96.6467 256.009 96.5176 255.504 96.2594C254.998 96.0011 254.599 95.6476 254.307 95.1988C254.014 94.7499 253.868 94.2396 253.868 93.6678C253.868 93.139 253.966 92.6717 254.161 92.2659C254.355 91.8601 254.645 91.5188 255.029 91.2422C255.412 90.9593 255.887 90.7472 256.454 90.6058C257.026 90.4582 257.681 90.3844 258.418 90.3844H260.045Z" fill="#1B2D51"/>
<path d="M246.979 83.0338V96.4623H244.466V83.0338H246.979ZM252.342 88.835V90.8363H246.321V88.835H252.342ZM253.046 83.0338V85.0352H246.321V83.0338H253.046Z" fill="#1B2D51"/>
</g>
</svg>
